# xmcd
#
# Track frame offsets: 
#        150
#        25738
#        50338
#        70725
#        89528
#        112955
#        139165
#        159590
#        175730
#        192513
#
# Disc length: 2915 seconds
#
# Revision: 0
# Processed by: cddbd v1.5.2PL0 Copyright (c) Steve Scherf et al.
# Submitted via: ExactAudioCopy v1.0b3
#
DISCID=820b610a
DTITLE=Trang Thanh Lan, Quang Binh - Em Di Tren Co Non
DYEAR=1994
DGENRE=
TTITLE0=Trang Thanh Lan - Em di tren co non
TTITLE1=LK Dan ca
TTITLE2=Trang Thanh Lan - Que huong
TTITLE3=Bong nguoi cung thon
TTITLE4=Quang Binh - Me mai trong con
TTITLE5=Chiec ao ba ba
TTITLE6=Trang Thanh Lan - Dong An Giang
TTITLE7=Bai ngoi ca que huong
TTITLE8=Trang Thanh Lan - Trang sang trong lang
TTITLE9=Quang Binh - Co hang nuoc
EXTD=
EXTT0=
EXTT1=
EXTT2=
EXTT3=
EXTT4=
EXTT5=
EXTT6=
EXTT7=
EXTT8=
EXTT9=
PLAYORDER=
